<svg xmlns="http://www.w3.org/2000/svg" width="294" height="156" viewBox="0 0 294 156">
  <rect x="0.5" y="0.5" width="293" height="155" rx="10" fill="#ffffff" stroke="#c2c7ce"/>
  <defs>
    <marker id="arr" viewBox="0 0 10 10" refX="8" refY="5" markerWidth="6.5" markerHeight="6.5" orient="auto">
      <path d="M1 1.5 L8 5 L1 8.5 Z" fill="#2b638b"/>
    </marker>
    <marker id="muted" viewBox="0 0 10 10" refX="8" refY="5" markerWidth="6.5" markerHeight="6.5" orient="auto">
      <path d="M1 1.5 L8 5 L1 8.5 Z" fill="#72787e"/>
    </marker>
  </defs>
  <rect x="16" y="18" width="84" height="36" rx="6" fill="#f7f9ff" stroke="#c2c7ce"/>
  <text x="58.0" y="36.0" fill="#181c20" font-size="13" text-anchor="middle" dominant-baseline="middle" font-family="'Inter', 'WenQuanYi Micro Hei', 'Hiragino Sans', 'Noto Sans JP', 'Yu Gothic', sans-serif">手元から</text>
  <rect x="16" y="78" width="84" height="36" rx="6" fill="#f7f9ff" stroke="#c2c7ce"/>
  <text x="58.0" y="96.0" fill="#181c20" font-size="13" text-anchor="middle" dominant-baseline="middle" font-family="'Inter', 'WenQuanYi Micro Hei', 'Hiragino Sans', 'Noto Sans JP', 'Yu Gothic', sans-serif">待ち行列</text>
  <path d="M100 36 H116 V94 H100" fill="none" stroke="#2b638b" stroke-width="1.5"/>
  <line x1="116" y1="65" x2="156" y2="65" stroke="#2b638b" stroke-width="1.5" marker-end="url(#arr)"/>
  <rect x="164" y="38" width="114" height="56" rx="6" fill="#f7f9ff" stroke="#c2c7ce"/>
  <text x="221.0" y="57.5" fill="#181c20" font-size="13" text-anchor="middle" dominant-baseline="middle" font-family="'Inter', 'WenQuanYi Micro Hei', 'Hiragino Sans', 'Noto Sans JP', 'Yu Gothic', sans-serif">未終了は一つ</text>
  <text x="221.0" y="74.0" fill="#42474e" font-size="12" text-anchor="middle" dominant-baseline="middle" font-family="'Inter', 'WenQuanYi Micro Hei', 'Hiragino Sans', 'Noto Sans JP', 'Yu Gothic', sans-serif">宛先は固定</text>
  <path d="M249.0 94 C 249.0 126, 193.0 126, 193.0 100" fill="none" stroke="#2b638b" stroke-width="1.5" marker-end="url(#arr)"/>
  <text x="221.0" y="140.0" fill="#2b638b" font-size="12" text-anchor="middle" dominant-baseline="middle" font-family="'Inter', 'WenQuanYi Micro Hei', 'Hiragino Sans', 'Noto Sans JP', 'Yu Gothic', sans-serif">再送は同じ</text>
</svg>
